Format                         : AVI
Format/Info                    : Audio Video Interleave
Format profile                 : OpenDML
File size                      : 3.98 GiB
Duration                       : 1h 12mn
Overall bit rate               : 7 864 Kbps
Writing application            : Lavf51.12.1

Video
ID                             : 0
Format                         : AVC
Format/Info                    : Advanced Video Codec
Format profile                 : Baseline@L3.2
Format settings, CABAC         : No
Format settings, ReFrames      : 1 frame
Format settings, GOP           : M=1, N=12
Codec ID                       : H264
Duration                       : 1h 12mn
Bit rate                       : 7 536 Kbps
Width                          : 852 pixels
Height                         : 480 pixels
Display aspect ratio           : 4:3
Frame rate mode                : Variable
Frame rate                     : 23.976 fps
Color space                    : YUV
Chroma subsampling             : 4:2:0
Bit depth                      : 8 bits
Scan type                      : Progressive
Bits/(Pixel*Frame)             : 0.769
Stream size                    : 3.82 GiB (96%)

Audio
ID                             : 1
Format                         : AC-3
Format/Info                    : Audio Coding 3
Mode extension                 : CM (complete main)
Format settings, Endianness    : Big
Codec ID                       : 2000
Duration                       : 1h 12mn
Bit rate mode                  : Constant
Bit rate                       : 320 Kbps
Channel(s)                     : 2 channels
Channel positions              : Front: L R
Sampling rate                  : 44.1 KHz
Bit depth                      : 16 bits
Compression mode               : Lossy
Stream size                    : 166 MiB (4%)
Alignment                      : Aligned on interleaves
Interleave, duration           : 35 ms (0.84 video frame)
Interleave, preload duration   : 34 ms

